PathFileType	4	(x/y/z)	S04_SL_Cal.trc
DataRate	CameraRate	NumFrames	NumMarkers	Units	OrigDataRate	OrigDataStartFrame	OrigNumFrames
240	240	4	51	mm	240	601	2400
Frame#	Time	Sternum			R.Acromium			L.Acromium			Top.Head			R.ASIS			L.ASIS			R.PSIS			L.PSIS			R.Great.Tro			L.Great.Tro			R.Iliac.Crest			L.Iliac.Crest			V.Sacral			R.Thigh.Upper.Post			R.Thigh.Lower.Ant			R.Thigh.Lower.Post			R.Thigh.Upper.Ant			R.Knee.Lat			R.Knee.Med			R.Shank.Upper.Post			R.Shank.Lower.Ant			R.Shank.Lower.Post			R.Shank.Upper.Ant			R.Ankle.Lat			R.Ankle.Med			R.Heel.Upper			R.Heel.Med			R.Heel.Lat			R.Toe.Lat			R.Toe.Med			R.Toe.Tip			L.Thigh.Upper.Post			L.Thigh.Lower.Ant			L.Thigh.Lower.Post			L.Thigh.Upper.Ant			L.Knee.Lat			L.Knee.Med			L.Shank.Upper.Post			L.Shank.Lower.Ant			L.Shank.Lower.Post			L.Shank.Upper.Ant			L.Ankle.Lat			L.Ankle.Med			L.Heel.Upper			L.Heel.Med			L.Heel.Lat			L.Toe.Lat			L.Toe.Med			L.Toe.Tip			Cervical.Spine			Back			
		X1	Y1	Z1	X2	Y2	Z2	X3	Y3	Z3	X4	Y4	Z4	X5	Y5	Z5	X6	Y6	Z6	X7	Y7	Z7	X8	Y8	Z8	X9	Y9	Z9	X10	Y10	Z10	X11	Y11	Z11	X12	Y12	Z12	X13	Y13	Z13	X14	Y14	Z14	X15	Y15	Z15	X16	Y16	Z16	X17	Y17	Z17	X18	Y18	Z18	X19	Y19	Z19	X20	Y20	Z20	X21	Y21	Z21	X22	Y22	Z22	X23	Y23	Z23	X24	Y24	Z24	X25	Y25	Z25	X26	Y26	Z26	X27	Y27	Z27	X28	Y28	Z28	X29	Y29	Z29	X30	Y30	Z30	X31	Y31	Z31	X32	Y32	Z32	X33	Y33	Z33	X34	Y34	Z34	X35	Y35	Z35	X36	Y36	Z36	X37	Y37	Z37	X38	Y38	Z38	X39	Y39	Z39	X40	Y40	Z40	X41	Y41	Z41	X42	Y42	Z42	X43	Y43	Z43	X44	Y44	Z44	X45	Y45	Z45	X46	Y46	Z46	X47	Y47	Z47	X48	Y48	Z48	X49	Y49	Z49	X50	Y50	Z50	X51	Y51	Z51	

601	2.5	351.39	1294.6	277.09	205.84	1521.2	452.09	192.93	1510.8	113.38	195.48	1837.9	272.67	329.22	1002.4	416.4	334.1	1014.7	166.28	120.38	1047	314.49	129.37	1049.7	232.48	231.93	929.14	480.24	212.27	937.17	100.55	247.13	1097.5	457.71	233.96	1102.3	119.01	101.66	1007.9	273.33	203.22	676.17	492.8	270.18	583.98	466.51	194.02	585.53	486.38	289.69	692.83	477.75	211.4	515.69	479.72	190.26	498.96	354.86	135.56	294.04	495.68	208.05	215.61	465.27	135.38	222.85	484.94	201.12	287.21	483.3	155.55	108.12	476.08	182.5	114.61	389.09	96.885	74.031	419.72	109.17	43.963	390.65	97.671	42.03	454.34	262.16	40.006	519.32	311.4	40.591	404.04	368.55	58.426	458.64	166.45	712.96	96.431	234.73	607.27	90.516	164.3	623.46	98.859	232.13	697.67	81.99	191.51	522.23	96.263	193.07	500.13	218.17	109.32	343.24	81.825	183.98	262	74.356	120.07	265.47	83.448	172.46	338.01	73.312	176.03	105.81	82.079	185.31	109.07	173.34	106.06	71.698	122.05	112.73	46.853	155.56	110.52	44.289	94.165	293.72	43.157	52.996	326.4	49.415	168.27	382.89	59.302	118.12	157.58	1555.2	287.58	92.774	1297.7	267.01
602	2.5042	351.37	1294.6	277.1	205.83	1521.2	452.09	192.92	1510.8	113.38	195.47	1837.9	272.67	329.21	1002.4	416.41	334.1	1014.7	166.28	120.37	1047	314.5	129.36	1049.7	232.48	231.92	929.14	480.25	212.27	937.17	100.55	247.11	1097.5	457.72	233.94	1102.3	119.02	101.65	1007.9	273.33	203.22	676.17	492.8	270.17	583.98	466.52	194.02	585.53	486.39	289.69	692.83	477.75	211.4	515.68	479.72	190.26	498.96	354.87	135.56	294.04	495.68	208.05	215.61	465.27	135.39	222.85	484.94	201.12	287.21	483.3	155.54	108.12	476.08	182.5	114.61	389.09	96.885	74.03	419.72	109.17	43.962	390.65	97.671	42.029	454.34	262.16	40.006	519.32	311.4	40.591	404.04	368.55	58.427	458.64	166.45	712.96	96.434	234.73	607.27	90.522	164.3	623.46	98.863	232.13	697.67	81.996	191.5	522.23	96.267	193.07	500.13	218.18	109.31	343.24	81.831	183.98	262	74.359	120.07	265.47	83.451	172.46	338.01	73.315	176.03	105.81	82.079	185.31	109.07	173.34	106.06	71.696	122.05	112.73	46.853	155.56	110.52	44.289	94.165	293.72	43.157	52.996	326.4	49.415	168.28	382.89	59.303	118.12	157.57	1555.2	287.59	92.762	1297.7	267.02
603	2.5083	351.36	1294.6	277.1	205.82	1521.2	452.1	192.92	1510.8	113.38	195.46	1837.9	272.66	329.2	1002.4	416.42	334.1	1014.7	166.28	120.36	1047	314.5	129.35	1049.7	232.49	231.92	929.14	480.26	212.26	937.17	100.56	247.09	1097.5	457.73	233.93	1102.3	119.02	101.64	1007.9	273.34	203.21	676.17	492.81	270.17	583.98	466.53	194.02	585.52	486.39	289.68	692.83	477.76	211.4	515.68	479.73	190.26	498.96	354.87	135.56	294.04	495.69	208.05	215.61	465.27	135.41	222.84	484.94	201.12	287.21	483.3	155.54	108.13	476.08	182.5	114.61	389.09	96.885	74.029	419.72	109.17	43.961	390.65	97.671	42.028	454.34	262.16	40.006	519.32	311.4	40.592	404.04	368.55	58.427	458.64	166.44	712.95	96.437	234.73	607.27	90.528	164.3	623.46	98.867	232.13	697.67	82.002	191.5	522.23	96.272	193.07	500.13	218.18	109.31	343.23	81.836	183.98	261.99	74.362	120.06	265.47	83.454	172.46	338.01	73.317	176.03	105.81	82.078	185.31	109.07	173.35	106.06	71.694	122.05	112.73	46.853	155.56	110.52	44.29	94.164	293.72	43.157	52.996	326.4	49.415	168.28	382.89	59.303	118.12	157.57	1555.2	287.59	92.75	1297.7	267.02
604	2.5125	351.35	1294.6	277.11	205.82	1521.2	452.1	192.91	1510.8	113.39	195.45	1837.9	272.66	329.19	1002.4	416.43	334.09	1014.7	166.29	120.35	1047	314.51	129.34	1049.7	232.5	231.91	929.14	480.26	212.25	937.17	100.57	247.08	1097.5	457.74	233.92	1102.3	119.03	101.63	1007.9	273.34	203.21	676.17	492.82	270.17	583.98	466.53	194.01	585.52	486.4	289.68	692.83	477.76	211.4	515.68	479.73	190.25	498.96	354.88	135.56	294.04	495.69	208.05	215.61	465.27	135.43	222.83	484.95	201.12	287.21	483.3	155.54	108.13	476.08	182.5	114.61	389.09	96.884	74.028	419.72	109.17	43.96	390.65	97.671	42.027	454.34	262.16	40.006	519.32	311.4	40.592	404.04	368.55	58.428	458.64	166.44	712.95	96.441	234.73	607.27	90.534	164.3	623.46	98.871	232.12	697.67	82.007	191.5	522.23	96.277	193.06	500.13	218.19	109.3	343.23	81.842	183.97	261.99	74.365	120.06	265.47	83.457	172.45	338.01	73.32	176.03	105.81	82.078	185.31	109.07	173.35	106.06	71.694	122.05	112.73	46.852	155.56	110.52	44.29	94.164	293.72	43.158	52.996	326.4	49.415	168.28	382.89	59.304	118.12	157.56	1555.2	287.59	92.737	1297.7	267.03
